<?xml version="1.0" encoding="iso-8859-1"?>
<!-- Uploaded to: SVG Repo, www.svgrepo.com, Generator: SVG Repo Mixer Tools -->
<svg height="800px" width="800px" version="1.1" id="Layer_1" xmlns="http://www.w3.org/2000/svg" xmlns:xlink="http://www.w3.org/1999/xlink" 
	 viewBox="0 0 496.158 496.158" xml:space="preserve">
<path style="fill:#EDC92F;" d="M248.082,0.003C111.07,0.003,0,111.063,0,248.085c0,137.001,111.07,248.07,248.082,248.07
	c137.006,0,248.076-111.069,248.076-248.07C496.158,111.062,385.088,0.003,248.082,0.003z"/>
<path style="fill:#45A445;" d="M226.551,252.26c0,0-107.147,34.712-70.103,170.795c0,0,5.735,6.01,15.931,5.373
	c10.199-0.637,14.659-5.373,14.659-5.373S137.967,298.145,226.551,252.26z"/>
<path style="fill:#57C457;" d="M226.551,252.26c0,0-107.147,34.712-70.103,170.795c0,0,5.735,6.01,15.931,5.373
	C172.379,428.428,117.573,301.969,226.551,252.26z"/>
<path style="fill:#307530;" d="M364.642,230.624c19.038-9.909,27.584-32.936,19.095-53.058
	c-8.934-21.175-33.341-31.099-54.516-22.166c-4.344,1.833-9.047,4.603-13.926,8.007c3.405-4.878,6.175-9.581,8.007-13.925
	c8.935-21.175-0.991-45.583-22.164-54.516c-20.122-8.487-43.149,0.057-53.059,19.095c-9.909-19.038-32.937-27.582-53.059-19.094
	c-21.175,8.934-31.099,33.341-22.165,54.516c1.832,4.345,4.603,9.047,8.008,13.925c-4.877-3.405-9.58-6.175-13.924-8.007
	c-21.177-8.934-45.584,0.991-54.519,22.166c-8.488,20.122,0.058,43.148,19.096,53.058c-19.038,9.91-27.584,32.938-19.096,53.058
	c8.935,21.175,33.342,31.099,54.519,22.166c4.344-1.832,9.047-4.602,13.924-8.007c-3.405,4.876-6.176,9.58-8.008,13.925
	c-8.934,21.175,0.99,45.583,22.165,54.517c20.122,8.488,43.149-0.058,53.059-19.095c9.91,19.038,32.937,27.583,53.059,19.095
	c21.173-8.935,31.099-33.342,22.164-54.517c-1.832-4.345-4.602-9.048-8.007-13.925c4.879,3.405,9.582,6.175,13.926,8.007
	c21.175,8.934,45.582-0.99,54.516-22.166C392.225,263.561,383.68,240.534,364.642,230.624z M248.079,229.948
	c0.012,0.091,0.022,0.166,0.032,0.245c-0.012,0.014-0.021,0.027-0.032,0.04c-0.012-0.013-0.022-0.026-0.032-0.04
	C248.057,230.114,248.067,230.039,248.079,229.948z M247.648,230.657c-0.078-0.01-0.152-0.02-0.245-0.033
	c0.093-0.011,0.165-0.023,0.245-0.032c0.014,0.013,0.025,0.022,0.041,0.034C247.676,230.635,247.662,230.645,247.648,230.657z
	 M248.079,231.3c-0.012-0.091-0.022-0.166-0.032-0.244c0.01-0.014,0.021-0.028,0.032-0.04c0.011,0.012,0.021,0.026,0.032,0.04
	C248.101,231.134,248.091,231.209,248.079,231.3z M248.158,230.704c-0.026,0.003-0.057,0.007-0.079,0.011
	c-0.022-0.003-0.054-0.007-0.08-0.011c-0.003-0.026-0.009-0.058-0.011-0.08c0.002-0.023,0.008-0.053,0.011-0.08
	c0.026-0.003,0.058-0.008,0.08-0.011c0.022,0.002,0.053,0.007,0.079,0.011c0.005,0.026,0.01,0.057,0.012,0.08
	C248.168,230.646,248.163,230.678,248.158,230.704z M248.51,230.657c-0.014-0.011-0.027-0.022-0.041-0.031
	c0.016-0.012,0.027-0.021,0.041-0.034c0.08,0.009,0.154,0.021,0.246,0.032C248.663,230.637,248.589,230.646,248.51,230.657z"/>
<g>
	<path style="fill:#57C457;" d="M296.885,105.839c-18.509-7.808-39.69,0.052-48.806,17.564
		c-9.115-17.512-30.297-25.372-48.806-17.564c-19.478,8.218-28.607,30.668-20.389,50.147c12.172,28.855,69.084,74.84,69.084,74.84
		s0.04-0.292,0.11-0.823c0.07,0.531,0.11,0.823,0.11,0.823s56.912-45.984,69.084-74.84
		C325.49,136.507,316.363,114.058,296.885,105.839z"/>
	<path style="fill:#57C457;" d="M317.273,305.262c-12.172-28.854-69.084-74.84-69.084-74.84s-0.04,0.292-0.11,0.823
		c-0.07-0.531-0.11-0.823-0.11-0.823s-56.912,45.985-69.084,74.84c-8.219,19.478,0.911,41.928,20.389,50.147
		c18.509,7.808,39.69-0.053,48.806-17.564c9.115,17.512,30.297,25.372,48.806,17.564C316.363,347.19,325.49,324.74,317.273,305.262z
		"/>
</g>
<g>
	<path style="fill:#45A445;" d="M355.3,230.624c17.512-9.114,25.371-30.297,17.564-48.805c-8.22-19.478-30.668-28.606-50.147-20.39
		c-28.854,12.174-74.84,69.084-74.84,69.084s0.293,0.04,0.824,0.11c-0.531,0.071-0.824,0.111-0.824,0.111
		s45.986,56.912,74.84,69.083c19.479,8.218,41.928-0.911,50.147-20.389C380.671,260.921,372.811,239.74,355.3,230.624z"/>
	<path style="fill:#45A445;" d="M248.281,230.514c0,0-45.985-56.91-74.84-69.084c-19.479-8.216-41.929,0.912-50.147,20.39
		c-7.806,18.508,0.053,39.691,17.564,48.805c-17.512,9.116-25.37,30.297-17.564,48.806c8.219,19.478,30.669,28.606,50.147,20.389
		c28.854-12.172,74.84-69.083,74.84-69.083s-0.293-0.04-0.823-0.111C247.988,230.554,248.281,230.514,248.281,230.514z"/>
</g>
<g>
	<circle style="fill:#307530;" cx="247.459" cy="230.619" r="11.01"/>
	<path style="fill:#307530;" d="M243.696,116.609c4.022,28.147,0.929,85.685,4.177,85.685c3.247,0-0.154-57.537,4.176-85.685
		H243.696z"/>
	<path style="fill:#307530;" d="M247.873,260.139c-3.248,0,0.152,57.536-4.177,85.685h8.353
		C248.025,317.675,251.12,260.139,247.873,260.139z"/>
	<path style="fill:#307530;" d="M276.796,231.216c0,3.248,57.537-0.155,85.685,4.176v-8.353
		C334.333,231.061,276.796,227.968,276.796,231.216z"/>
	<path style="fill:#307530;" d="M133.266,227.039v8.353c28.147-4.023,85.684-0.928,85.684-4.176S161.413,231.37,133.266,227.039z"/>
	<path style="fill:#307530;" d="M318.484,155.266c-15.428,20.57-54.195,55.379-52.118,57.458
		c2.074,2.076,36.69-36.888,57.456-52.118L318.484,155.266z"/>
	<path style="fill:#307530;" d="M229.381,249.709c-2.079-2.077-36.691,36.887-57.458,52.117l5.339,5.341
		C192.689,286.596,231.456,251.787,229.381,249.709z"/>
	<path style="fill:#307530;" d="M266.366,249.709c-2.077,2.078,36.888,36.69,52.118,57.458l5.338-5.341
		C303.254,286.399,268.44,247.632,266.366,249.709z"/>
	<path style="fill:#307530;" d="M177.262,155.266l-5.339,5.339c20.569,15.427,55.379,54.194,57.458,52.118
		C231.456,210.645,192.492,176.032,177.262,155.266z"/>
</g>
</svg>